<svg xmlns="http://www.w3.org/2000/svg" width="1440" height="1024" fill="none"><path fill="url(#a)" fill-rule="evenodd" d="M -217.6 475.8 c 91.8 -72 225.5 -29.4 341.2 -44.7 C 240 415.6 372.3 315.1 466.8 384.9 c 102.9 76 44.7 246.8 90.3 366.3 c 29.8 78.2 90.5 136.1 129.5 210.2 c 57.9 110 169.7 208.2 155.9 331.8 c -13.5 121.3 -103.4 264.3 -224.2 281.4 c -142 20 -232.7 -221 -374.1 -197 c -151.7 25.7 -172.7 330.2 -325.9 315.7 c -128.6 -12.2 -110.9 -230.7 -128.2 -358.8 c -12.2 -90.1 65.9 -176.3 44.1 -264.6 c -26.4 -107.2 -167.1 -163.5 -176.7 -273.4 c -10.2 -116.3 33 -248.8 124.9 -320.8 Z" clip-rule="evenodd" style="opacity: .154"/><path transform="matrix(-1,-0.1,0.1,-1,1446.7,1493)" fill="url(#b)" fill-rule="evenodd" d="M 417.3 266.2 c 135.9 -16.6 255.6 -132.7 383.9 -88.2 c 174.6 60.5 379.7 181 377.9 352.3 c -1.8 171.3 -240.7 237.2 -385.2 345.6 c -120.7 90.5 -223 250.6 -376.5 225.8 c -152 -24.5 -150.3 -233.3 -264 -329.1 c -125.3 -105.6 -404.7 -86.4 -413.9 -242.3 c -9 -153.5 229.7 -209.7 383.9 -269.8 c 93.8 -36.5 192.9 17.9 293.9 5.6 Z" clip-rule="evenodd" style="opacity: .154"/><defs><linearGradient id="b" x1="373" x2="1995.44" y1="1100" y2="118.03" gradientUnits="userSpaceOnUse"><stop stop-color="#d83333"/><stop offset="1" stop-color="#f041ff"/></linearGradient><linearGradient id="a" x1="107.37" x2="1130.66" y1="1993.35" y2="1026.31" gradientUnits="userSpaceOnUse"><stop stop-color="#3245ff"/><stop offset="1" stop-color="#bc52ee"/></linearGradient></defs></svg>
